<svg xmlns="http://www.w3.org/2000/svg" width="1131.002" height="293" viewBox="0 0 1131.002 293">
  <g id="Group_6" data-name="Group 6" transform="translate(0 33.98)">
    <rect id="Rectangle_2" data-name="Rectangle 2" width="1130" height="282" rx="58" transform="translate(0.002 -22.98)" fill="#e4e4e4"/>
    <g id="Group_5" data-name="Group 5" transform="translate(304.002 -33.943)">
      <text id="Nice_to_see_you_I_am_Joanna" data-name="Nice to see you, I am Joanna" transform="translate(0 150.963)" fill="#0a0a0a" font-size="26" font-family="MSReferenceSansSerif, MS Reference Sans Serif" letter-spacing="0.012em" style="mix-blend-mode: darken;isolation: isolate"><tspan x="0" y="26">Nice to see you, I am Joanna</tspan></text>
      <g id="learning_icon" transform="translate(575)">
        <g id="Group_3" data-name="Group 3">
          <rect id="canvas_background" width="252" height="219" transform="translate(0 -0.037)" fill="none"/>
        </g>
        <g id="Group_4" data-name="Group 4" transform="translate(38.569 36.3)">
          <g id="svg_7">
            <g id="svg_5">
              <path id="svg_6" d="M142.225,157.717H307.262a4.815,4.815,0,0,1,4.744,4.868V274.775a4.815,4.815,0,0,1-4.744,4.868H142.225a4.815,4.815,0,0,1-4.744-4.868V162.584a4.815,4.815,0,0,1,4.744-4.868Zm111.293,98.71-22.81-14.181v-8.992l22.81-14.181v10.683l-13.862,8.016,13.862,8.016v10.639h0Zm14.16,0,22.81-14.181v-8.992l-22.81-14.181v10.683l13.862,8.016-13.862,8.016v10.639h0Zm-75.318-34.613,5.44,5.582a3.844,3.844,0,0,1,0,5.334l-4.374,4.489a30.287,30.287,0,0,1,2.713,7.433h5.667a3.747,3.747,0,0,1,3.679,3.775v7.885a3.747,3.747,0,0,1-3.679,3.775h-6.192a29.98,29.98,0,0,1-2.145,5.334H300.715a4.263,4.263,0,0,0,4.19-4.3V169.653a4.254,4.254,0,0,0-4.19-4.3H148.787a4.244,4.244,0,0,0-4.19,4.3v50.441a3.6,3.6,0,0,1,4.857.306l4.374,4.489a28.579,28.579,0,0,1,7.243-2.784V216.29a3.734,3.734,0,0,1,3.679-3.76h7.684a3.747,3.747,0,0,1,3.679,3.775v6.34a28.877,28.877,0,0,1,7.03,3.294l4.005-4.124a3.628,3.628,0,0,1,5.212,0h0ZM167.62,233.939a17.2,17.2,0,0,1,16.972,17.431,17.5,17.5,0,0,1-6.945,14.049H157.593a17.5,17.5,0,0,1-6.945-14.049,17.2,17.2,0,0,1,16.972-17.431h0Zm-10.752-40.88h10.894a1.561,1.561,0,0,1,1.52,1.559V197.8a1.57,1.57,0,0,1-1.52,1.559H156.868a1.551,1.551,0,0,1-1.52-1.559v-3.177a1.524,1.524,0,0,1,1.52-1.559Zm18.038-16.221H217.06a1.551,1.551,0,0,1,1.52,1.559v3.177a1.551,1.551,0,0,1-1.52,1.559H174.906a1.542,1.542,0,0,1-1.52-1.559V178.4a1.542,1.542,0,0,1,1.52-1.559h0Zm-18.038,0h10.894a1.542,1.542,0,0,1,1.52,1.559v3.177a1.542,1.542,0,0,1-1.52,1.559H156.868a1.542,1.542,0,0,1-1.52-1.559V178.4a1.524,1.524,0,0,1,1.52-1.559Zm35.1,16.221h69.949a1.561,1.561,0,0,1,1.52,1.559V197.8a1.58,1.58,0,0,1-1.52,1.559H191.963a1.551,1.551,0,0,1-1.52-1.559v-3.177a1.542,1.542,0,0,1,1.52-1.559Zm-17.256,0H185.6a1.561,1.561,0,0,1,1.52,1.559V197.8a1.57,1.57,0,0,1-1.52,1.559H174.707a1.551,1.551,0,0,1-1.52-1.559v-3.177a1.533,1.533,0,0,1,1.52-1.559Zm28.519,93.3h43.035c.114,7.637,3.181,14.472,11.49,19.864H191.736c6.647-4.941,11.518-10.945,11.49-19.864h0Z" transform="translate(-137.481 -157.717)" fill="#ffee82" fill-rule="evenodd"/>
            </g>
          </g>
        </g>
      </g>
    </g>
    <g id="design_icon" transform="translate(0 146.52)">
      <g id="Group_1" data-name="Group 1" transform="translate(0 11.413)">
        <rect id="canvas_background-2" data-name="canvas_background" width="171.048" height="86.4" transform="translate(0 0)" fill="none"/>
      </g>
      <g id="Group_2" data-name="Group 2" transform="translate(14.21)">
        <g id="svg_14">
          <g id="svg_12">
            <path id="svg_13" d="M271.207,207.118l3.469,3.509a2.4,2.4,0,0,1,0,3.357l-2.8,2.83a19.038,19.038,0,0,1,1.735,4.678h3.62a2.363,2.363,0,0,1,2.347,2.374v4.959a2.363,2.363,0,0,1-2.347,2.374h-3.955a18.89,18.89,0,0,1-2.047,4.538l2.567,2.585a2.4,2.4,0,0,1,0,3.357l-3.469,3.509a2.333,2.333,0,0,1-3.319,0l-2.8-2.83a17.954,17.954,0,0,1-4.626,1.754v3.661a2.363,2.363,0,0,1-2.347,2.374h-4.9a2.363,2.363,0,0,1-2.347-2.374v-4a18.476,18.476,0,0,1-4.487-2.07l-2.556,2.6a2.333,2.333,0,0,1-3.319,0l-3.469-3.509a2.4,2.4,0,0,1,0-3.357l2.8-2.83a18.583,18.583,0,0,1-1.735-4.678H233.6a2.363,2.363,0,0,1-2.347-2.374v-4.959a2.363,2.363,0,0,1,2.347-2.374h3.955a18.891,18.891,0,0,1,2.047-4.538l-2.556-2.585a2.4,2.4,0,0,1,0-3.357l3.469-3.509a2.333,2.333,0,0,1,3.319,0l2.8,2.83a18.114,18.114,0,0,1,4.626-1.754v-3.661a2.363,2.363,0,0,1,2.347-2.374h4.9a2.363,2.363,0,0,1,2.347,2.374v3.988a18.475,18.475,0,0,1,4.487,2.07l2.556-2.585a2.319,2.319,0,0,1,3.307,0h0ZM141.53,247.95c3.388-3.6,4.764-4.059,9.32-4.9v-73.8c-10.639,1.053-9.4,11.006-9.344,20.258.012,1.24.023,1.895.023,2.2V247.95h0Zm29.684-51.112h20.433v62.879h-21.9V196.837Zm3.828,53.3h3.943v2.082h-3.943v-2.082Zm0-5.8h3.943v2.082h-3.943v-2.082Zm0-5.872h3.943v2.082h-3.943v-2.082Zm0-5.86h6.545v2.082h-6.545V232.6Zm0-5.86h3.943v2.082h-3.943v-2.082Zm0-5.872h3.943v2.082h-3.943v-2.082Zm0-5.86h3.943V217.1h-3.943v-2.082Zm0-5.86h3.943v2.082h-3.943v-2.082Zm0-5.813h6.545v2.082h-6.545V203.34ZM188.7,199.8H172.683v56.937H188.7V199.8ZM219,210.4V259.3h-13.53V210.4h-.058l.463-.947,5.585-11.614.567-1.181.59,1.17,5.955,11.614.5.971H219V210.4h0ZM207.5,209.072h9.425l-3.747-7.3h-2.162l-3.515,7.3Zm-52.65-29.229h99.715a2.716,2.716,0,0,1,1.966.83,2.819,2.819,0,0,1,.821,1.988v8.176h-5.169v-6.374H154.852v60.61h-.012a1.7,1.7,0,0,1-1.445,1.7c-15.195,2.374-15.866,20.585-.451,23.194h99.241v-7.649h5.169v10.059a2.819,2.819,0,0,1-.821,1.988l-.012.012h0a2.756,2.756,0,0,1-1.966.83H152.828c-4.163,0-9.945-3.3-12.35-6.784-2.359-3.392-3.2-7.755-2.96-12.831V189.515c-.069-11.31-.15-23.533,15.426-23.8a1.11,1.11,0,0,1,.2-.012,1.717,1.717,0,0,1,1.711,1.731v12.41h0Zm100.559,36.118a9.755,9.755,0,1,1-9.644,9.755,9.7,9.7,0,0,1,9.644-9.755Z" transform="translate(-137.477 -165.702)" fill="#ffee82" fill-rule="evenodd"/>
          </g>
        </g>
      </g>
    </g>
  </g>
</svg>
